#N canvas 773 123 444 303 12;
#X obj 232 50 knob 38 128 0 127 0 0 \$0-freq \$0-set-freq empty 0 -10 0 12 #dfdfdf #000000 #000000 0 xy 0 #000000 1 -176 176;
#X text 234 29 freq;
#X obj 219 114 r \$0-freq;
#X obj 219 138 rescale 220 440;
#X obj 219 162 bl.saw~;
#X obj 219 186 out~;
#X text 53 73 default -176/176ยบ, f 10;
#X connect 2 0 3 0;
#X connect 3 0 4 0;
#X connect 4 0 5 0;
